<?xml version="1.0" standalone="no"?><!DOCTYPE svg PUBLIC "-//W3C//DTD SVG 1.1//EN" "http://www.w3.org/Graphics/SVG/1.1/DTD/svg11.dtd"><svg t="1727889298508" class="icon" viewBox="0 0 1024 1024" version="1.1" xmlns="http://www.w3.org/2000/svg" p-id="13608" xmlns:xlink="http://www.w3.org/1999/xlink" width="200" height="200"><path d="M792.565 96c51.413 0 87.649 50.807 71.999 99.663-15.818 49.377-30.253 100.658-41.555 150.555-0.29 1.284-0.579 2.564-0.864 3.842l-0.85 3.823-0.833 3.804a1314.19 1314.19 0 0 0-0.817 3.786l-0.802 3.766c-0.397 1.878-0.788 3.75-1.172 5.613l-0.762 3.718-0.375 1.851-0.738 3.688-0.362 1.836-0.714 3.658-0.696 3.638c-0.69 3.627-1.353 7.223-1.992 10.788l-0.631 3.555-0.614 3.533-0.598 3.512a891.62 891.62 0 0 0-3.467 22.293l-0.47 3.346a719.454 719.454 0 0 0-3.116 25.926l-0.31 3.133-0.29 3.109c-1.41 15.481-2.136 30.036-2.136 43.564 0 13.528 0.726 28.083 2.136 43.564l0.29 3.109 0.31 3.133a719.454 719.454 0 0 0 3.117 25.926l0.469 3.346a891.62 891.62 0 0 0 3.467 22.293l0.598 3.512 0.614 3.533 0.63 3.555c0.64 3.565 1.304 7.161 1.993 10.788l0.696 3.638 0.714 3.658c0.12 0.611 0.24 1.223 0.362 1.836l0.738 3.688 0.375 1.851 0.762 3.718c0.384 1.864 0.775 3.735 1.172 5.613l0.802 3.766c0.27 1.259 0.542 2.52 0.817 3.786l0.834 3.804 0.849 3.823c0.285 1.278 0.573 2.558 0.864 3.842 11.302 49.897 25.737 101.178 41.555 150.555C880.214 877.193 843.978 928 792.565 928h-560.13c-51.414 0-87.65-50.808-71.999-99.663 15.819-49.378 30.253-100.658 41.555-150.555l0.865-3.842 0.848-3.823 0.419-1.904 0.825-3.795c0.137-0.631 0.272-1.261 0.407-1.89l0.802-3.767c0.264-1.252 0.526-2.501 0.786-3.747l0.77-3.727c0.253-1.24 0.504-2.475 0.753-3.708l0.738-3.688c0.243-1.226 0.483-2.449 0.721-3.668l0.705-3.647c0.813-4.244 1.593-8.446 2.338-12.605l0.631-3.555c0.208-1.181 0.412-2.359 0.614-3.533l0.598-3.512c3.042-18.089 5.41-35.315 7.053-51.565l0.31-3.134 0.29-3.108c1.41-15.481 2.136-30.036 2.136-43.564 0-13.528-0.726-28.083-2.136-43.564l-0.29-3.108-0.31-3.134c-1.644-16.25-4.01-33.476-7.053-51.565l-0.598-3.512a999.973 999.973 0 0 0-0.614-3.533l-0.63-3.555c-0.853-4.753-1.75-9.562-2.69-14.426l-0.713-3.658c-0.12-0.61-0.24-1.223-0.362-1.836l-0.738-3.688c-0.249-1.233-0.5-2.469-0.754-3.708l-0.77-3.727c-0.259-1.246-0.52-2.495-0.785-3.747l-0.802-3.766c-0.135-0.63-0.27-1.26-0.407-1.89l-0.825-3.796c-0.139-0.634-0.278-1.268-0.419-1.904l-0.848-3.823-0.865-3.842c-11.302-49.897-25.736-101.177-41.555-150.555C144.786 146.807 181.021 96 232.435 96z m0 64h-560.13c-3.06 0-5.832 1.305-7.904 3.374l-0.348 0.362c-2.9 3.139-4.262 7.832-2.798 12.402 16.346 51.025 31.268 104.036 43.025 155.942 0.465 2.052 0.924 4.098 1.376 6.137l0.897 4.069c1.037 4.736 2.04 9.435 3.009 14.094l0.822 3.985c0.27 1.325 0.54 2.647 0.805 3.966l0.787 3.946c0.26 1.312 0.517 2.621 0.771 3.927l0.753 3.908 0.736 3.888 0.72 3.868 0.7 3.849a1049.161 1049.161 0 0 1 2.936 17.07l0.603 3.737c6.04 37.891 9.275 72.583 9.275 103.476s-3.234 65.585-9.275 103.476l-0.603 3.737a1049.161 1049.161 0 0 1-2.936 17.07l-0.7 3.849-0.72 3.868-0.736 3.888-0.753 3.908c-0.254 1.306-0.51 2.615-0.77 3.927l-0.788 3.946c-0.266 1.32-0.534 2.641-0.805 3.966l-0.822 3.985c-0.969 4.66-1.972 9.358-3.009 14.094l-0.897 4.069c-0.452 2.039-0.911 4.085-1.376 6.137-11.757 51.906-26.679 104.917-43.025 155.942-1.464 4.57-0.103 9.263 2.798 12.402l0.348 0.362c2.072 2.069 4.845 3.374 7.904 3.374h560.13c7.69 0 13.576-8.253 11.05-16.138-16.346-51.024-31.268-104.036-43.025-155.942-0.465-2.052-0.924-4.098-1.376-6.137l-0.897-4.069a1369.27 1369.27 0 0 1-2.592-12.095l-0.83-3.994c-0.41-1.992-0.815-3.977-1.214-5.955l-0.787-3.947c-0.26-1.312-0.517-2.621-0.771-3.927l-0.753-3.908c-0.249-1.299-0.494-2.595-0.736-3.888l-0.719-3.868-0.701-3.849a1049.147 1049.147 0 0 1-2.936-17.07l-0.603-3.737c-6.04-37.891-9.275-72.583-9.275-103.476s3.234-65.585 9.275-103.476l0.603-3.737c0.918-5.622 1.897-11.313 2.936-17.07l0.701-3.849 0.719-3.868c0.242-1.293 0.487-2.59 0.736-3.888l0.753-3.908c0.254-1.306 0.51-2.615 0.77-3.927l0.788-3.947c0.399-1.978 0.803-3.963 1.214-5.955l0.83-3.994a1369.27 1369.27 0 0 1 2.592-12.095l0.897-4.069c0.452-2.039 0.911-4.085 1.376-6.137 11.757-51.906 26.68-104.918 43.025-155.94 2.526-7.888-3.36-16.14-11.05-16.14z m165.63 134.396c14 10.496 16.951 30.259 6.723 44.373l-0.314 0.426c-22.83 30.451-36.252 100.279-36.252 172.805 0 65.69 11.933 122.994 39.272 177.694 7.901 15.808 1.49 35.029-14.318 42.93-15.808 7.901-35.029 1.49-42.93-14.318-32.065-64.154-46.024-131.19-46.024-206.306 0-36.894 3.285-75.607 9.904-110.04a446.457 446.457 0 0 1 1.766-8.724l0.53-2.451c8.117-37.035 20.111-67.66 36.844-89.98 10.602-14.14 30.659-17.01 44.8-6.409z m-846.591 6.409c16.917 22.565 28.99 53.62 37.11 91.203l0.525 2.46c0.518 2.47 1.02 4.967 1.505 7.492 6.618 34.433 9.903 73.146 9.903 110.04 0 36.894-3.285 75.607-9.903 110.04a449.136 449.136 0 0 1-1.505 7.491l-0.524 2.46c-8.12 37.585-20.194 68.64-37.111 91.204-10.602 14.14-30.659 17.01-44.8 6.409-13.998-10.496-16.95-30.259-6.722-44.373l0.314-0.426C83.226 654.354 96.647 584.527 96.647 512c0-71.802-13.154-140.957-35.569-171.88l-0.682-0.925c-10.6-14.14-7.732-34.197 6.409-44.799 14.14-10.6 34.197-7.732 44.799 6.409zM469.85 650.667c17.673 0 32 14.327 32 32 0 17.496-14.042 31.713-31.47 31.995l-0.53 0.005h-85.3c-17.673 0-32-14.327-32-32 0-17.497 14.042-31.713 31.47-31.996l0.53-0.004h85.3zM640.45 480c17.673 0 32 14.327 32 32 0 17.496-14.042 31.713-31.47 31.996l-0.53 0.004h-255.9c-17.673 0-32-14.327-32-32 0-17.496 14.042-31.713 31.47-31.996l0.53-0.004h255.9z m0-181.333c17.673 0 32 14.327 32 32 0 17.496-14.042 31.713-31.47 31.995l-0.53 0.005h-255.9c-17.673 0-32-14.327-32-32 0-17.497 14.042-31.713 31.47-31.996l0.53-0.004h255.9z" p-id="13609" fill="#0a66c2"></path></svg>